# Blender 5.2.0 LTS
# www.blender.org
o Cube
v 2.000000 0.062500 -1.500000
v 2.000000 -0.062500 -1.500000
v 2.000000 0.062500 1.500000
v 2.000000 -0.062500 1.500000
v -2.000000 0.062500 -1.500000
v -2.000000 -0.062500 -1.500000
v -2.000000 0.062500 1.500000
v -2.000000 -0.062500 1.500000
vn -0.0000 1.0000 -0.0000
vn -0.0000 -0.0000 1.0000
vn -1.0000 -0.0000 -0.0000
vn -0.0000 -1.0000 -0.0000
vn 1.0000 -0.0000 -0.0000
vn -0.0000 -0.0000 -1.0000
vt 0.001000 0.001000
vt 0.999000 0.001000
vt 0.999000 0.999000
vt 0.001000 0.999000
vt 0.000000 1.000000
vt 0.015625 0.999000
vt 0.984375 0.999000
vt 1.000000 1.000000
vt 0.999000 1.000000
vt 0.999000 0.000000
vt 1.000000 0.000000
vt 0.000000 0.000000
vt 0.001000 0.000000
vt 0.001000 1.000000
vt 1.000000 0.001000
vt 0.000000 0.001000
s 0
f 1/1/1 5/2/1 7/3/1 3/4/1
f 4/5/2 3/6/2 7/7/2 8/8/2
f 8/8/3 7/9/3 5/10/3 6/11/3
f 6/11/4 2/12/4 4/5/4 8/8/4
f 2/12/5 1/13/5 3/14/5 4/5/5
f 6/11/6 5/15/6 1/16/6 2/12/6
