# Blender 4.4.3
# www.blender.org
o Icosphere
v 0.000856 -0.951588 -0.003881
v 0.655760 -0.398809 0.485628
v -0.171437 -0.305344 0.669361
v -0.797224 -0.376232 0.004516
v -0.208377 -0.394591 -0.699776
v 0.573108 -0.323647 -0.346470
v 0.268395 0.369986 0.753094
v -0.525263 0.347448 0.429466
v -0.695455 0.430421 -0.497349
v 0.257160 0.364751 -0.655204
v 0.686429 0.354665 0.035745
v 0.004358 0.890958 0.006185
v -0.090189 -0.619367 0.408165
v 0.407491 -0.743162 0.297911
v 0.262090 -0.447631 0.715810
v 0.849274 -0.534866 0.002770
v 0.402839 -0.803049 -0.279487
v -0.525492 -0.859883 -0.010846
v -0.525520 -0.416528 0.433338
v -0.152524 -0.808709 -0.462571
v -0.606264 -0.444692 -0.431069
v 0.237388 -0.423908 -0.604923
v 0.724218 0.007977 0.269202
v 0.784457 -0.000214 -0.204812
v 0.030553 0.018972 0.772337
v 0.456998 0.014558 0.636460
v -0.959837 -0.000613 0.300806
v -0.501603 0.021442 0.694572
v -0.517128 0.023516 -0.702688
v -0.906739 0.008398 -0.288897
v 0.508621 0.027354 -0.687075
v 0.002575 0.003090 -0.921863
v 0.524799 0.405593 0.410866
v -0.156166 0.399731 0.635205
v -0.862016 0.519148 -0.010709
v -0.232962 0.479406 -0.698434
v 0.685585 0.522831 -0.500868
v 0.174538 0.709155 0.458383
v 0.452494 0.758296 0.002084
v -0.287297 0.647743 0.264065
v -0.376859 0.762119 -0.266455
v 0.144116 0.764570 -0.428539
vn -0.0578 -0.7834 0.6189
vn 0.6040 -0.6704 0.4310
vn -0.1448 -0.7857 0.6015
vn -0.1634 -0.9561 -0.2432
vn 0.1188 -0.9360 -0.3313
vn 0.9311 0.0364 0.3629
vn -0.1693 -0.2009 0.9649
vn -0.6969 -0.6052 0.3847
vn -0.4886 -0.3663 -0.7919
vn 0.6198 -0.4849 -0.6170
vn 0.7979 0.1730 0.5775
vn -0.1421 -0.2181 0.9655
vn -0.9378 -0.3354 -0.0896
vn -0.3817 -0.2880 -0.8783
vn 0.8144 -0.3201 -0.4841
vn 0.6006 0.6126 0.5137
vn -0.4307 0.6727 0.6017
vn -0.5559 0.7632 -0.3294
vn 0.1959 0.5250 -0.8283
vn 0.8487 0.5050 0.1569
vn 0.2774 0.9428 -0.1849
vn 0.3668 0.8962 -0.2496
vn 0.1162 0.5145 -0.8496
vn -0.1001 0.9463 -0.3073
vn -0.1843 0.7931 -0.5805
vn -0.3349 0.7334 -0.5916
vn -0.4715 0.8423 0.2612
vn -0.3242 0.9120 0.2514
vn -0.4360 0.6740 0.5964
vn -0.3015 0.8400 0.4512
vn -0.3490 0.7175 0.6028
vn -0.1695 0.6193 0.7667
vn 0.2758 0.9233 0.2674
vn 0.6197 0.6451 0.4470
vn 0.8188 0.4983 0.2851
vn 0.9726 0.2224 0.0682
vn 0.8589 -0.1196 -0.4981
vn 0.2384 0.2659 -0.9341
vn 0.1901 0.4924 -0.8493
vn -0.3694 0.2386 -0.8981
vn -0.4080 0.2625 -0.8744
vn -0.8942 0.2720 -0.3556
vn -0.9872 0.1337 -0.0868
vn -0.5862 0.4948 0.6415
vn -0.4675 0.5371 0.7022
vn -0.1378 0.2751 0.9515
vn -0.2468 0.2190 0.9440
vn 0.7713 0.2124 0.6000
vn 0.7949 0.1938 0.5749
vn 0.8842 0.3234 0.3371
vn 0.3780 0.3622 -0.8520
vn 0.4025 -0.3925 -0.8270
vn 0.1413 -0.5388 -0.8305
vn -0.7283 0.0264 -0.6848
vn -0.6995 -0.2543 -0.6679
vn -0.8365 -0.4625 -0.2940
vn -0.5826 0.4869 0.6507
vn -0.5893 -0.3899 0.7076
vn -0.3901 -0.4559 0.8000
vn 0.2987 -0.1507 0.9424
vn 0.3037 0.0354 0.9521
vn 0.5098 -0.0678 0.8576
vn 0.9748 0.1875 0.1206
vn 0.9786 0.1658 0.1215
vn 0.7183 -0.1744 -0.6735
vn 0.6360 -0.3238 -0.7005
vn 0.2647 -0.5590 -0.7858
vn 0.1531 -0.4756 -0.8663
vn -0.4448 -0.4896 -0.7500
vn -0.5529 -0.6434 -0.5294
vn -0.8371 -0.4610 -0.2945
vn -0.7734 -0.4487 0.4478
vn -0.2776 -0.6800 0.6787
vn -0.2649 -0.6562 0.7065
vn 0.6369 -0.3240 -0.6996
vn 0.4719 -0.8773 0.0872
vn 0.3997 -0.9121 0.0914
vn -0.2898 -0.6552 0.6976
vn -0.0825 -0.8270 0.5561
vn 0.4409 -0.6534 0.6154
vt 0.181819 0.000000
vt 0.227273 0.078731
vt 0.136365 0.078731
vt 0.272728 0.157461
vt 0.318182 0.078731
vt 0.363637 0.157461
vt 0.909091 0.000000
vt 0.954545 0.078731
vt 0.863636 0.078731
vt 0.727273 0.000000
vt 0.772727 0.078731
vt 0.681818 0.078731
vt 0.545455 0.000000
vt 0.590909 0.078731
vt 0.500000 0.078731
vt 0.318182 0.236191
vt 0.090910 0.157461
vt 0.181819 0.157461
vt 0.136365 0.236191
vt 0.818182 0.157461
vt 0.909091 0.157461
vt 0.863636 0.236191
vt 0.636364 0.157461
vt 0.727273 0.157461
vt 0.681818 0.236191
vt 0.454546 0.157461
vt 0.545455 0.157461
vt 0.500000 0.236191
vt 0.227273 0.236191
vt 0.045455 0.236191
vt 0.772727 0.236191
vt 0.590909 0.236191
vt 0.409092 0.236191
vt 0.181819 0.314921
vt 0.272728 0.314921
vt 0.227273 0.393651
vt 0.000000 0.314921
vt 0.090910 0.314921
vt 0.045455 0.393651
vt 0.727273 0.314921
vt 0.818182 0.314921
vt 0.772727 0.393651
vt 0.545455 0.314921
vt 0.636364 0.314921
vt 0.590909 0.393651
vt 0.363637 0.314921
vt 0.454546 0.314921
vt 0.409092 0.393651
vt 0.500000 0.393651
vt 0.454546 0.472382
vt 0.681818 0.393651
vt 0.636364 0.472382
vt 0.863636 0.393651
vt 0.818182 0.472382
vt 0.909091 0.314921
vt 0.136365 0.393651
vt 0.090910 0.472382
vt 0.318182 0.393651
vt 0.272728 0.472382
vt 0.954545 0.236191
vt 1.000000 0.157461
vt 0.409092 0.078731
vt 0.363637 0.000000
s 0
f 1/1/1 14/2/1 13/3/1
f 2/4/2 14/5/2 16/6/2
f 1/7/3 13/8/3 18/9/3
f 1/10/4 18/11/4 20/12/4
f 1/13/5 20/14/5 17/15/5
f 2/4/6 16/6/6 23/16/6
f 3/17/7 15/18/7 25/19/7
f 4/20/8 19/21/8 27/22/8
f 5/23/9 21/24/9 29/25/9
f 6/26/10 22/27/10 31/28/10
f 2/4/11 23/16/11 26/29/11
f 3/17/12 25/19/12 28/30/12
f 4/20/13 27/22/13 30/31/13
f 5/23/14 29/25/14 32/32/14
f 6/26/15 31/28/15 24/33/15
f 7/34/16 33/35/16 38/36/16
f 8/37/17 34/38/17 40/39/17
f 9/40/18 35/41/18 41/42/18
f 10/43/19 36/44/19 42/45/19
f 11/46/20 37/47/20 39/48/20
f 39/48/21 42/49/21 12/50/21
f 39/48/22 37/47/22 42/49/22
f 37/47/23 10/43/23 42/49/23
f 42/45/24 41/51/24 12/52/24
f 42/45/25 36/44/25 41/51/25
f 36/44/26 9/40/26 41/51/26
f 41/42/27 40/53/27 12/54/27
f 41/42/28 35/41/28 40/53/28
f 35/41/29 8/55/29 40/53/29
f 40/39/30 38/56/30 12/57/30
f 40/39/31 34/38/31 38/56/31
f 34/38/32 7/34/32 38/56/32
f 38/36/33 39/58/33 12/59/33
f 38/36/34 33/35/34 39/58/34
f 33/35/35 11/46/35 39/58/35
f 24/33/36 37/47/36 11/46/36
f 24/33/37 31/28/37 37/47/37
f 31/28/38 10/43/38 37/47/38
f 32/32/39 36/44/39 10/43/39
f 32/32/40 29/25/40 36/44/40
f 29/25/41 9/40/41 36/44/41
f 30/31/42 35/41/42 9/40/42
f 30/31/43 27/22/43 35/41/43
f 27/22/44 8/55/44 35/41/44
f 28/30/45 34/38/45 8/37/45
f 28/30/46 25/19/46 34/38/46
f 25/19/47 7/34/47 34/38/47
f 26/29/48 33/35/48 7/34/48
f 26/29/49 23/16/49 33/35/49
f 23/16/50 11/46/50 33/35/50
f 31/28/51 32/32/51 10/43/51
f 31/28/52 22/27/52 32/32/52
f 22/27/53 5/23/53 32/32/53
f 29/25/54 30/31/54 9/40/54
f 29/25/55 21/24/55 30/31/55
f 21/24/56 4/20/56 30/31/56
f 27/22/57 28/60/57 8/55/57
f 27/22/58 19/21/58 28/60/58
f 19/21/59 3/61/59 28/60/59
f 25/19/60 26/29/60 7/34/60
f 25/19/61 15/18/61 26/29/61
f 15/18/62 2/4/62 26/29/62
f 23/16/63 24/33/63 11/46/63
f 23/16/64 16/6/64 24/33/64
f 16/6/65 6/26/65 24/33/65
f 17/15/66 22/27/66 6/26/66
f 17/15/67 20/14/67 22/27/67
f 20/14/68 5/23/68 22/27/68
f 20/12/69 21/24/69 5/23/69
f 20/12/70 18/11/70 21/24/70
f 18/11/71 4/20/71 21/24/71
f 18/9/72 19/21/72 4/20/72
f 18/9/73 13/8/73 19/21/73
f 13/8/74 3/61/74 19/21/74
f 16/6/75 17/62/75 6/26/75
f 16/6/76 14/5/76 17/62/76
f 14/5/77 1/63/77 17/62/77
f 13/3/78 15/18/78 3/17/78
f 13/3/79 14/2/79 15/18/79
f 14/2/80 2/4/80 15/18/80
