# Blender 4.4.3
# www.blender.org
o BubbleShield
v 0.043811 -0.450218 0.134834
v 0.333263 -0.303935 0.139123
v -0.114698 -0.450218 0.083333
v -0.114698 -0.450218 -0.083333
v 0.043811 -0.450218 -0.134834
v 0.420886 -0.162159 0.139123
v -0.002253 -0.162160 0.443277
v -0.422279 -0.162159 0.134835
v -0.258727 -0.162159 -0.359944
v 0.262377 -0.162160 -0.357292
v 0.377075 -0.074537 0.273959
v -0.144029 -0.074537 0.443278
v -0.466090 -0.074536 0.000000
v -0.144029 -0.074537 -0.443278
v 0.377075 -0.074537 -0.273959
v 0.187839 0.303935 0.308440
v -0.235300 0.303935 0.273958
v -0.333263 0.303935 -0.139123
v 0.029329 0.303935 -0.359943
v 0.351391 0.303934 -0.083333
v 0.114698 0.450218 -0.083333
v 0.229396 0.371174 -0.166665
v 0.187839 0.303935 -0.308440
v -0.043811 0.450218 -0.134834
v -0.087623 0.371174 -0.269670
v -0.235300 0.303935 -0.273958
v -0.141774 0.450218 0.000000
v -0.283549 0.371174 0.000000
v -0.333263 0.303935 0.139123
v -0.043811 0.450218 0.134834
v -0.087623 0.371174 0.269670
v 0.029329 0.303935 0.359943
v 0.114698 0.450218 0.083333
v 0.229396 0.371174 0.166665
v 0.351391 0.303934 0.083333
v 0.422279 0.162159 -0.134835
v 0.371172 0.087623 -0.269671
v 0.258727 0.162159 -0.359944
v 0.002253 0.162160 -0.443277
v -0.141776 0.087623 -0.436338
v -0.262377 0.162160 -0.357292
v -0.420885 0.162159 -0.139123
v -0.458794 0.087623 0.000000
v -0.420886 0.162159 0.139123
v -0.262377 0.162160 0.357292
v -0.141776 0.087623 0.436338
v 0.002253 0.162160 0.443277
v 0.258727 0.162159 0.359944
v 0.371172 0.087623 0.269671
v 0.422279 0.162159 0.134835
v 0.144029 0.074537 -0.443278
v 0.141776 -0.087623 -0.436338
v -0.002253 -0.162160 -0.443277
v -0.377075 0.074537 -0.273959
v -0.371172 -0.087623 -0.269671
v -0.422279 -0.162159 -0.134835
v -0.377075 0.074537 0.273959
v -0.371172 -0.087623 0.269671
v -0.258727 -0.162159 0.359944
v 0.144029 0.074537 0.443278
v 0.141776 -0.087623 0.436338
v 0.262377 -0.162160 0.357292
v 0.466090 0.074536 0.000000
v 0.458794 -0.087623 0.000000
v 0.420886 -0.162159 -0.139123
v 0.235300 -0.303935 -0.273958
v 0.087623 -0.371174 -0.269670
v -0.029329 -0.303935 -0.359943
v -0.187839 -0.303935 -0.308440
v -0.229396 -0.371174 -0.166665
v -0.351391 -0.303934 -0.083333
v -0.351391 -0.303934 0.083333
v -0.229396 -0.371174 0.166665
v -0.187839 -0.303935 0.308440
v 0.333263 -0.303935 -0.139123
v 0.283549 -0.371174 0.000000
v 0.141774 -0.450218 0.000000
v -0.029329 -0.303935 0.359943
v 0.087623 -0.371174 0.269670
v 0.235300 -0.303935 0.273958
vn -0.0000 -1.0000 -0.0000
vn 0.7236 -0.4472 0.5257
vn -0.2764 -0.4472 0.8506
vn -0.8944 -0.4472 -0.0000
vn -0.2764 -0.4472 -0.8506
vn 0.7236 -0.4472 -0.5257
vn 0.2764 0.4472 0.8506
vn -0.7236 0.4472 0.5257
vn -0.7236 0.4472 -0.5257
vn 0.2764 0.4472 -0.8506
vn 0.8944 0.4472 -0.0000
vn -0.0000 1.0000 -0.0000
vn -0.1625 -0.8507 0.5000
vn 0.4253 -0.8507 0.3090
vn 0.2629 -0.5257 0.8090
vn 0.8506 -0.5257 -0.0000
vn 0.4253 -0.8507 -0.3090
vn -0.5257 -0.8507 -0.0000
vn -0.6882 -0.5257 0.5000
vn -0.1625 -0.8507 -0.5000
vn -0.6882 -0.5257 -0.5000
vn 0.2629 -0.5257 -0.8090
vn 0.9511 -0.0000 0.3090
vn 0.9511 -0.0000 -0.3090
vn -0.0000 -0.0000 1.0000
vn 0.5878 -0.0000 0.8090
vn -0.9511 -0.0000 0.3090
vn -0.5878 -0.0000 0.8090
vn -0.5878 -0.0000 -0.8090
vn -0.9511 -0.0000 -0.3090
vn 0.5878 -0.0000 -0.8090
vn -0.0000 -0.0000 -1.0000
vn 0.6882 0.5257 0.5000
vn -0.2629 0.5257 0.8090
vn -0.8507 0.5257 -0.0000
vn -0.2629 0.5257 -0.8090
vn 0.6882 0.5257 -0.5000
vn 0.1625 0.8507 0.5000
vn 0.5257 0.8507 -0.0000
vn -0.4253 0.8507 0.3090
vn -0.4253 0.8507 -0.3090
vn 0.1625 0.8507 -0.5000
vt 0.000000 0.000000
vt 1.000000 0.000000
vt 1.000000 1.000000
vt 0.500000 1.000000
vt 0.000000 1.000000
vt 0.500000 0.000000
s 0
f 1/1/1 3/2/1 4/3/1 5/4/1 77/5/1
f 2/5/2 6/1/2 11/2/2 62/3/2 80/4/2
f 7/1/3 12/2/3 59/3/3 74/4/3 78/5/3
f 8/1/4 13/2/4 56/3/4 71/4/4 72/5/4
f 9/1/5 14/2/5 53/3/5 68/4/5 69/5/5
f 10/5/6 15/1/6 65/2/6 75/3/6 66/4/6
f 16/2/7 32/3/7 47/4/7 60/5/7 48/1/7
f 17/2/8 29/3/8 44/4/8 57/5/8 45/1/8
f 18/5/9 26/1/9 41/2/9 54/3/9 42/4/9
f 19/5/10 23/1/10 38/2/10 51/3/10 39/4/10
f 20/5/11 35/1/11 50/2/11 63/3/11 36/4/11
f 21/3/12 24/4/12 27/5/12 30/1/12 33/2/12
f 1/5/13 79/1/13 78/6/13 74/2/13 73/3/13 3/4/13
f 1/4/14 77/5/14 76/1/14 2/6/14 80/2/14 79/3/14
f 7/6/15 78/2/15 79/3/15 80/4/15 62/5/15 61/1/15
f 2/3/16 76/4/16 75/5/16 65/1/16 64/6/16 6/2/16
f 5/4/17 67/5/17 66/1/17 75/6/17 76/2/17 77/3/17
f 3/1/18 73/6/18 72/2/18 71/3/18 70/4/18 4/5/18
f 8/6/19 72/2/19 73/3/19 74/4/19 59/5/19 58/1/19
f 4/4/20 70/5/20 69/1/20 68/6/20 67/2/20 5/3/20
f 9/3/21 69/4/21 70/5/21 71/1/21 56/6/21 55/2/21
f 10/3/22 66/4/22 67/5/22 68/1/22 53/6/22 52/2/22
f 6/3/23 64/4/23 63/5/23 50/1/23 49/6/23 11/2/23
f 15/1/24 37/6/24 36/2/24 63/3/24 64/4/24 65/5/24
f 7/5/25 61/1/25 60/6/25 47/2/25 46/3/25 12/4/25
f 11/4/26 49/5/26 48/1/26 60/6/26 61/2/26 62/3/26
f 8/3/27 58/4/27 57/5/27 44/1/27 43/6/27 13/2/27
f 12/4/28 46/5/28 45/1/28 57/6/28 58/2/28 59/3/28
f 9/5/29 55/1/29 54/6/29 41/2/29 40/3/29 14/4/29
f 13/1/30 43/6/30 42/2/30 54/3/30 55/4/30 56/5/30
f 10/5/31 52/1/31 51/6/31 38/2/31 37/3/31 15/4/31
f 14/5/32 40/1/32 39/6/32 51/2/32 52/3/32 53/4/32
f 16/6/33 48/2/33 49/3/33 50/4/33 35/5/33 34/1/33
f 17/6/34 45/2/34 46/3/34 47/4/34 32/5/34 31/1/34
f 18/2/35 42/3/35 43/4/35 44/5/35 29/1/35 28/6/35
f 19/3/36 39/4/36 40/5/36 41/1/36 26/6/36 25/2/36
f 20/3/37 36/4/37 37/5/37 38/1/37 23/6/37 22/2/37
f 16/5/38 34/1/38 33/6/38 30/2/38 31/3/38 32/4/38
f 20/3/39 22/4/39 21/5/39 33/1/39 34/6/39 35/2/39
f 17/5/40 31/1/40 30/6/40 27/2/40 28/3/40 29/4/40
f 18/4/41 28/5/41 27/1/41 24/6/41 25/2/41 26/3/41
f 19/4/42 25/5/42 24/1/42 21/6/42 22/2/42 23/3/42
